<?xml version="1.0" encoding="UTF-8" standalone="no"?>
<!-- Created with Inkscape (http://www.inkscape.org/) -->

<svg
   height="45"
   width="45"
   version="1.0"
   id="svg25"
   sodipodi:docname="Chess_Ctlt45.svg"
   viewBox="0 0 26.000003 26.000003"
   inkscape:version="1.2.2 (732a01da63, 2022-12-09)"
   xmlns:inkscape="http://www.inkscape.org/namespaces/inkscape"
   xmlns:sodipodi="http://sodipodi.sourceforge.net/DTD/sodipodi-0.dtd"
   xmlns:xlink="http://www.w3.org/1999/xlink"
   xmlns="http://www.w3.org/2000/svg"
   xmlns:svg="http://www.w3.org/2000/svg"
   xmlns:rdf="http://www.w3.org/1999/02/22-rdf-syntax-ns#"
   xmlns:cc="http://creativecommons.org/ns#"
   xmlns:dc="http://purl.org/dc/elements/1.1/">
  <defs
     id="defs29">
    <inkscape:path-effect
       effect="powerstroke"
       id="path-effect3340"
       is_visible="true"
       lpeversion="1"
       offset_points="0,3.0708766"
       not_jump="false"
       sort_points="true"
       interpolator_type="CubicBezierJohan"
       interpolator_beta="0.2"
       start_linecap_type="zerowidth"
       linejoin_type="extrp_arc"
       miter_limit="4"
       scale_width="1"
       end_linecap_type="zerowidth" />
    <inkscape:path-effect
       effect="fill_between_many"
       method="bsplinespiro"
       linkedpaths="#path3338,0,1"
       id="path-effect3342" />
  </defs>
  <sodipodi:namedview
     id="namedview27"
     pagecolor="#ffffff"
     bordercolor="#000000"
     borderopacity="0.25"
     inkscape:showpageshadow="2"
     inkscape:pageopacity="0.0"
     inkscape:pagecheckerboard="0"
     inkscape:deskcolor="#d1d1d1"
     showgrid="false"
     inkscape:zoom="9.0192308"
     inkscape:cx="22.840085"
     inkscape:cy="22.063966"
     inkscape:window-width="1280"
     inkscape:window-height="649"
     inkscape:window-x="-8"
     inkscape:window-y="-8"
     inkscape:window-maximized="1"
     inkscape:current-layer="svg25" />
  <metadata
     id="metadata2">
    <rdf:RDF>
      <cc:Work
         rdf:about="">
        <dc:format>image/svg+xml</dc:format>
        <dc:type
           rdf:resource="http://purl.org/dc/dcmitype/StillImage" />
      </cc:Work>
    </rdf:RDF>
  </metadata>
  <g
     transform="matrix(0.75757574,0,0,0.75757574,2.8791515,-7.9393932)"
     id="g10">
    <path
       stroke-linejoin="miter"
       d="m 14.44,29.5 c 0.222,1.68 -3.09,4.06 -4.5,5 -1.73,1.16 -1.74,2.7 -3,2.5 -0.602,-0.545 0.817,-2.02 0,-2 -0.58,0 0.19,1.1 -0.5,1.5 -0.58,0 -2.5,0.4 -2.5,-2.5 0,-1.2 3.5,-6.5 3.5,-6.5 0,0 0.934,-1.08 1,-2 -0.419,-0.575 -0.258,-1.48 0,-2 0.365,-0.731 1.5,1.5 1.5,1.5 h 1 c 0,0 0.5,-1.5 1.5,-2 0.517,-0.258 0.5,2 0.5,2 6.07,0.578 9.29,4.37 9,16.5 H 9.44 c 0,-4.9 4.8,-3.7 4.5,-10.5"
       fill-rule="evenodd"
       stroke="#000000"
       stroke-linecap="round"
       stroke-miterlimit="4"
       stroke-dasharray="none"
       stroke-width="1.32"
       fill="#ffffff"
       id="path4" />
    <path
       fill="#000000"
       d="m 9,23.5 a 0.5,0.5 0 1 1 -1,0 0.5,0.5 0 1 1 1,0 z"
       transform="translate(-3.4999999,10)"
       id="path6" />
    <path
       fill="#000000"
       d="M 9.6058,30.28 A 1.0281,1.4729 30 0 1 7.8251,29.252 1.0281,1.4729 30 0 1 9.6058,30.28 Z"
       id="path8" />
  </g>
  <g
     transform="translate(0,-4)"
     id="g23">
    <path
       stroke-linejoin="round"
       d="m 18,18 4,-8 -4,4 V 8 l -3,5.125 -2,-5 -2,5 L 8,8 v 6 l -4,-4 3,8 c 0,0 2.0349,-2.5 6,-2.5 3.9651,0 5,2.5 5,2.5 z"
       fill-rule="evenodd"
       stroke="#000000"
       stroke-linecap="butt"
       stroke-miterlimit="4"
       stroke-dasharray="none"
       stroke-width="0.8"
       fill="#ffffff"
       id="path12" />
    <path
       id="path3804"
       stroke-linejoin="miter"
       d="m 5.5,10 a 1.5,1.5 0 0 1 -3,0 1.5,1.5 0 1 1 3,0 z"
       stroke-dashoffset="0"
       stroke="#000000"
       stroke-linecap="butt"
       stroke-miterlimit="4"
       stroke-dasharray="none"
       stroke-width="0.75"
       fill="#ffffff" />
    <use
       xlink:href="#path3804"
       transform="translate(4,-2)"
       height="26"
       width="26"
       y="0"
       x="0"
       id="use15" />
    <use
       xlink:href="#path3804"
       transform="translate(9,-2)"
       height="26"
       width="26"
       y="0"
       x="0"
       id="use17" />
    <use
       xlink:href="#path3804"
       transform="matrix(-1,0,0,1,26,0)"
       height="26"
       width="26"
       y="0"
       x="0"
       id="use19" />
    <use
       xlink:href="#path3804"
       transform="matrix(-1,0,0,1,22,-2)"
       height="26"
       width="26"
       y="0"
       x="0"
       id="use21" />
  </g>
  <path
     sodipodi:type="star"
     style="opacity:1;fill:#000000;stroke:#000000;stroke-width:1.28936;stroke-linecap:round;stroke-linejoin:round;stroke-dasharray:none;stroke-opacity:1"
     id="path495"
     inkscape:flatsided="true"
     sodipodi:sides="3"
     sodipodi:cx="-1.6655771"
     sodipodi:cy="-4.6764278"
     sodipodi:r1="2.9004695"
     sodipodi:r2="1.4502348"
     sodipodi:arg1="0.53284389"
     sodipodi:arg2="1.5800414"
     inkscape:rounded="0"
     inkscape:randomized="0"
     d="m 0.83278851,-3.2030328 -5.02354591,-0.046445 2.5519951,-4.3272961 z"
     inkscape:transform-center-x="0.0036475525"
     inkscape:transform-center-y="-0.29452987"
     transform="matrix(0.2720308,0,0,0.41281139,13.383581,11.344858)" />
  <path
     sodipodi:type="star"
     style="fill:#000000;stroke:#000000;stroke-width:1.6103569;stroke-linecap:round;stroke-linejoin:round;stroke-dasharray:none;stroke-opacity:1"
     id="path495-3"
     inkscape:flatsided="true"
     sodipodi:sides="3"
     sodipodi:cx="-1.6655771"
     sodipodi:cy="-4.6764278"
     sodipodi:r1="2.9004695"
     sodipodi:r2="1.4502348"
     sodipodi:arg1="0.53284389"
     sodipodi:arg2="1.5800414"
     inkscape:rounded="0"
     inkscape:randomized="0"
     d="m 0.83278851,-3.2030328 -5.02354591,-0.046445 2.5519951,-4.3272961 z"
     inkscape:transform-center-x="-0.16852496"
     inkscape:transform-center-y="-0.22150834"
     transform="matrix(0.2042544,-0.05733161,0.11809802,0.39789091,10.448033,11.88167)" />
  <path
     sodipodi:type="star"
     style="fill:#000000;stroke:#000000;stroke-width:1.61036;stroke-linecap:round;stroke-linejoin:round;stroke-dasharray:none;stroke-opacity:1"
     id="path495-3-4"
     inkscape:flatsided="true"
     sodipodi:sides="3"
     sodipodi:cx="-1.6655771"
     sodipodi:cy="-4.6764278"
     sodipodi:r1="2.9004695"
     sodipodi:r2="1.4502348"
     sodipodi:arg1="0.53284389"
     sodipodi:arg2="1.5800414"
     inkscape:rounded="0"
     inkscape:randomized="0"
     d="m 0.83278851,-3.2030328 -5.02354591,-0.046445 2.5519951,-4.3272961 z"
     inkscape:transform-center-x="0.16852545"
     inkscape:transform-center-y="-0.22150834"
     transform="matrix(-0.2042544,-0.05733161,-0.11809802,0.39789091,15.402594,11.916115)" />
  <path
     style="opacity:1;fill:#000000;stroke:#000000;stroke-width:0.477822;stroke-linecap:round;stroke-linejoin:round;stroke-dasharray:none;stroke-opacity:1"
     d="M 6.7518602,10.327069 7.332093,11.646633 7.673854,11.406734 Z"
     id="path3346" />
  <path
     style="fill:#000000;stroke:#000000;stroke-width:0.477822;stroke-linecap:round;stroke-linejoin:round;stroke-dasharray:none;stroke-opacity:1"
     d="m 18.590189,10.614842 -0.580233,1.319564 -0.341761,-0.239899 z"
     id="path3346-7" />
</svg>
