<?xml version="1.0" encoding="UTF-8" standalone="no"?>
<!--
	Kentaur (fehér)
	Készült: knight-w.svg és commonr-w.svg felhasználásával
	Felhasználási feltételek: Nevezd meg! - Így add tovább! (Creative Commons)
	Uray M. János
	2018
-->

<svg
   version="1.1"
   width="45"
   height="45"
   viewBox="0 0 45 45"
   id="svg1696"
   sodipodi:docname="Chess_Celt.svg"
   inkscape:version="1.2.2 (732a01da63, 2022-12-09)"
   xmlns:inkscape="http://www.inkscape.org/namespaces/inkscape"
   xmlns:sodipodi="http://sodipodi.sourceforge.net/DTD/sodipodi-0.dtd"
   xmlns="http://www.w3.org/2000/svg"
   xmlns:svg="http://www.w3.org/2000/svg">
  <defs
     id="defs1700" />
  <sodipodi:namedview
     id="namedview1698"
     pagecolor="#ffffff"
     bordercolor="#000000"
     borderopacity="0.25"
     inkscape:showpageshadow="2"
     inkscape:pageopacity="0.0"
     inkscape:pagecheckerboard="0"
     inkscape:deskcolor="#d1d1d1"
     showgrid="false"
     inkscape:zoom="3.6640625"
     inkscape:cx="55.266525"
     inkscape:cy="64.136461"
     inkscape:window-width="1280"
     inkscape:window-height="649"
     inkscape:window-x="-8"
     inkscape:window-y="-8"
     inkscape:window-maximized="1"
     inkscape:current-layer="svg1696" />
  <!-- huszár -->
  <g
     transform="matrix(0.75,0,0,0.75,5.625,12)"
     stroke-width="2"
     id="g1682">
    <g
       fill="#ffffff"
       stroke="#000000"
       stroke-linecap="round"
       stroke-linejoin="round"
       id="g1674">
      <!-- test -->
      <path
         d="m 22,10 c 10.5,1 16.5,8 16,29 H 15 c 0,-9 10,-6.5 8,-21"
         id="path1670" />
      <!-- fej -->
      <path
         d="m 24,18 c 0.38,2.91 -5.55,7.37 -8,9 -3,2 -2.82,4.34 -5,4 -1.042,-0.94 1.41,-3.04 0,-3 -1,0 0.19,1.23 -1,2 -1,0 -4.003,1 -4,-4 0,-2 6,-12 6,-12 0,0 1.89,-1.9 2,-3.5 -0.73,-0.994 -0.5,-2 -0.5,-3 1,-1 3,2.5 3,2.5 h 2 c 0,0 0.78,-1.992 2.5,-3 1,0 1,3 1,3"
         id="path1672" />
    </g>
    <!-- vonalak -->
    <g
       fill="#000000"
       stroke="#000000"
       stroke-linejoin="round"
       id="g1680">
      <!-- orr -->
      <path
         d="m 9.5,25.5 a 0.5,0.5 0 1 1 -1,0 0.5,0.5 0 1 1 1,0 z"
         id="path1676" />
      <!-- szem -->
      <path
         d="m 15.25,14.2 a 0.50027797,1.5008337 30 1 1 -1.5,2.6 0.50027797,1.5008337 30 1 1 1.5,-2.6 z"
         id="path1678" />
    </g>
  </g>
  <!-- köztiszt -->
  <g
     transform="matrix(0.85,0,0,0.85,3.375,-5)"
     stroke-width="1.765"
     id="g1694">
    <g
       fill="#ffffff"
       stroke="#000000"
       stroke-linejoin="round"
       id="g1688">
      <!-- bojt -->
      <circle
         cx="22.5"
         cy="13.5"
         r="2.5"
         id="circle1684" />
      <!-- test -->
      <path
         d="m 11.5,33.5 c 5.5,-3 15.5,-3 21,0 V 30 c 0,0 9,-4.5 6,-11 -5.5,-7 -26.5,-7 -32,0 -3,6.5 5,10.5 5,10.5 z"
         id="path1686" />
    </g>
    <!-- vonalak -->
    <g
       fill="none"
       stroke="#000000"
       stroke-linecap="round"
       id="g1692">
      <path
         d="M 11.5,30 C 17,27 27,27 32.5,30"
         id="path1690" />
    </g>
  </g>
</svg>
