<?xml version="1.0" encoding="UTF-8" standalone="no"?>
<!-- Created with Inkscape (http://www.inkscape.org/) -->

<svg
   width="45mm"
   height="45mm"
   viewBox="0 0 45 45"
   version="1.1"
   id="svg5"
   inkscape:version="1.2.2 (732a01da63, 2022-12-09)"
   sodipodi:docname="bE.svg"
   xml:space="preserve"
   xmlns:inkscape="http://www.inkscape.org/namespaces/inkscape"
   xmlns:sodipodi="http://sodipodi.sourceforge.net/DTD/sodipodi-0.dtd"
   xmlns="http://www.w3.org/2000/svg"
   xmlns:svg="http://www.w3.org/2000/svg"><sodipodi:namedview
     id="namedview7"
     pagecolor="#ffffff"
     bordercolor="#000000"
     borderopacity="0.25"
     inkscape:showpageshadow="2"
     inkscape:pageopacity="0.0"
     inkscape:pagecheckerboard="0"
     inkscape:deskcolor="#d1d1d1"
     inkscape:document-units="mm"
     showgrid="false"
     inkscape:zoom="2.3634905"
     inkscape:cx="38.290825"
     inkscape:cy="85.04371"
     inkscape:window-width="1280"
     inkscape:window-height="649"
     inkscape:window-x="-8"
     inkscape:window-y="-8"
     inkscape:window-maximized="1"
     inkscape:current-layer="layer1" /><defs
     id="defs2" /><g
     inkscape:label="Layer 1"
     inkscape:groupmode="layer"
     id="layer1"><path
       style="fill:#000000;fill-opacity:1;stroke:#000000;stroke-width:1.5;stroke-linejoin:round;stroke-dasharray:none;stroke-opacity:1"
       d="m 22.5,8 6,6.49994 -6,7.5 -6,-7.5 z"
       id="path236"
       sodipodi:nodetypes="ccccc" /><path
       style="fill:#060606;fill-opacity:1;stroke:#000000;stroke-width:1.5;stroke-linejoin:round;stroke-dasharray:none;stroke-opacity:1"
       d="m 14,17 h 17 l -2,4.5 H 16 Z"
       id="path1842"
       sodipodi:nodetypes="ccccc" /><path
       style="fill:#000000;fill-opacity:1;stroke:#000000;stroke-width:1.5;stroke-linejoin:round;stroke-dasharray:none;stroke-opacity:1"
       d="m 19,21.5 -2.5,13.99994 h 12 L 26,21.5 Z"
       id="path2053"
       sodipodi:nodetypes="ccccc" /><path
       style="fill:#000000;fill-opacity:1;stroke:#000000;stroke-width:1.5;stroke-linejoin:round;stroke-dasharray:none;stroke-opacity:1"
       d="m 30,35.49994 2.5,4.5 h -20 l 2.5,-4.5 z"
       id="path2055"
       sodipodi:nodetypes="ccccc" /><path
       style="fill:#000000;fill-opacity:1;stroke:#000000;stroke-width:1;stroke-linejoin:round;stroke-dasharray:none;stroke-opacity:1"
       d="m 9,11.999969 v 2.5 l 2,1 v -2.5 z"
       id="path3587"
       sodipodi:nodetypes="ccccc" /><path
       style="fill:#000000;fill-opacity:1;stroke:#000000;stroke-width:1;stroke-linejoin:round;stroke-dasharray:none;stroke-opacity:1"
       d="m 36,11.999969 v 2.5 l -2,1 v -2.5 z"
       id="path3587-0"
       sodipodi:nodetypes="ccccc" /><path
       style="fill:none;fill-opacity:1;stroke:#ffffff;stroke-width:1;stroke-linejoin:round;stroke-dasharray:none;stroke-opacity:1"
       d="M 19.822,35.12093 22.5,25.5 l 2.456,9.732878"
       id="path3611"
       sodipodi:nodetypes="ccc" /><path
       style="fill:#000000;stroke:#000000;stroke-width:1.5;stroke-linecap:round;stroke-linejoin:round;stroke-dasharray:none;fill-opacity:1"
       d="m 15.5,17 h 14 l 3,-6 -7.5,3.5 -2.5,-2 -2.5,2 -7.5,-3.5 z"
       id="path1006"
       sodipodi:nodetypes="cccccccc" /><path
       style="fill:#000000;fill-opacity:1;stroke:#000000;stroke-width:1.5;stroke-linecap:round;stroke-linejoin:round;stroke-dasharray:none"
       d="m 3.9999696,28.302593 c 0,0 2.3881823,-4.962938 3.6382463,-5.821191 1.250064,-0.858253 4.4218671,-1.231407 4.4218671,-1.231407 0,0 1.781837,2.438984 0.671676,3.470326 -0.412124,0.382864 -1.699503,-0.176866 -2.659959,-0.160636 -0.4802281,0.0081 0.324694,1.699477 -0.3175711,2.269351 -0.642265,0.569874 -2.283933,-0.205636 -2.283933,-0.205636 0,0 0.339998,1.815344 -0.55973,2.015028 C 5.8541269,28.872892 3.9999696,28.30259 3.9999696,28.30259 Z"
       id="path1014"
       sodipodi:nodetypes="cscscscscc" /><path
       style="fill:#000000;fill-opacity:1;stroke:#000000;stroke-width:1.5;stroke-linecap:round;stroke-linejoin:round;stroke-dasharray:none"
       d="m 41.095842,28.302593 c 0,0 -2.388182,-4.962938 -3.638245,-5.821191 -1.250064,-0.858253 -4.421868,-1.231407 -4.421868,-1.231407 0,0 -1.781837,2.438984 -0.671676,3.470327 0.412124,0.382863 1.699503,-0.176866 2.65996,-0.160636 0.480228,0.0081 -0.324694,1.699476 0.317571,2.26935 0.642265,0.569874 2.283933,-0.205636 2.283933,-0.205636 0,0 -0.339998,1.815344 0.55973,2.015028 1.056438,0.234464 2.910595,-0.335838 2.910595,-0.335838 z"
       id="path1014-8"
       sodipodi:nodetypes="cscscscscc" /><path
       style="fill:none;stroke:#ffffff;stroke-width:1;stroke-linecap:round;stroke-linejoin:round;stroke-dasharray:none;stroke-opacity:1"
       d="m 21.5,35.151046 1,-3.651046 1,3.874939"
       id="path478"
       sodipodi:nodetypes="ccc" /><path
       style="fill:none;fill-opacity:1;stroke:#ffffff;stroke-width:1;stroke-linecap:round;stroke-linejoin:round"
       d="m 12.761845,11.306547 7.276491,3.470326 2.462812,-1.791136 2.574758,2.015028 7.164544,-3.582272"
       id="path906" /><path
       style="fill:#000000;fill-opacity:1;stroke:#ffffff;stroke-width:1;stroke-linecap:round;stroke-linejoin:round;stroke-opacity:1"
       d="m 16.232171,35.374939 12.31406,-0.111945"
       id="path908" /><path
       style="fill:#000000;fill-opacity:1;stroke:#ffffff;stroke-width:1;stroke-linecap:round;stroke-linejoin:round;stroke-opacity:1"
       d="m 18.583038,21.60558 h 7.83622"
       id="path910" /><path
       style="fill:#000000;fill-opacity:1;stroke:#ffffff;stroke-width:1;stroke-linecap:round;stroke-linejoin:round;stroke-opacity:1"
       d="M 15.000765,16.568009 H 30.00153"
       id="path912" /></g></svg>
