<?xml version="1.0" encoding="UTF-8" standalone="no"?>
<!-- Created with Inkscape (http://www.inkscape.org/) -->

<svg
   width="45mm"
   height="45mm"
   viewBox="0 0 45 45"
   version="1.1"
   id="svg5"
   inkscape:version="1.2.2 (732a01da63, 2022-12-09)"
   sodipodi:docname="bS.svg"
   xml:space="preserve"
   xmlns:inkscape="http://www.inkscape.org/namespaces/inkscape"
   xmlns:sodipodi="http://sodipodi.sourceforge.net/DTD/sodipodi-0.dtd"
   xmlns="http://www.w3.org/2000/svg"
   xmlns:svg="http://www.w3.org/2000/svg"><sodipodi:namedview
     id="namedview7"
     pagecolor="#ffffff"
     bordercolor="#000000"
     borderopacity="0.25"
     inkscape:showpageshadow="2"
     inkscape:pageopacity="0.0"
     inkscape:pagecheckerboard="0"
     inkscape:deskcolor="#d1d1d1"
     inkscape:document-units="mm"
     showgrid="false"
     inkscape:zoom="2.8284271"
     inkscape:cx="58.159533"
     inkscape:cy="78.488853"
     inkscape:window-width="1280"
     inkscape:window-height="649"
     inkscape:window-x="-8"
     inkscape:window-y="-8"
     inkscape:window-maximized="1"
     inkscape:current-layer="layer1" /><defs
     id="defs2" /><g
     inkscape:label="Layer 1"
     inkscape:groupmode="layer"
     id="layer1"><path
       style="fill:#ffffff;stroke:#000000;stroke-width:1.2;stroke-linecap:round;stroke-linejoin:round;stroke-dasharray:none"
       d="m 29.185833,5.6126602 1.403164,0.8418988 3.274052,4.95785 -0.374179,6.173926 -3.367595,7.670635 -5.051393,-1.216076 -0.09354,-18.0540567 z"
       id="path1057" /><path
       style="fill:#000000;fill-opacity:1;stroke:#020202;stroke-width:1.5;stroke-linejoin:round;stroke-dasharray:none;stroke-opacity:1"
       d="m 15,27.5 -1.5,7.99994 h 18 L 30,27.5 Z"
       id="path2053"
       sodipodi:nodetypes="ccccc" /><path
       style="fill:#000000;fill-opacity:1;stroke:#020202;stroke-width:1.5;stroke-linejoin:round;stroke-dasharray:none;stroke-opacity:1"
       d="m 33,35.49994 2.5,4.5 h -26 l 2.5,-4.5 z"
       id="path2055"
       sodipodi:nodetypes="ccccc" /><path
       style="fill:none;stroke:#ffffff;stroke-width:1;stroke-linecap:round;stroke-linejoin:round;stroke-dasharray:none;stroke-opacity:1"
       d="m 17.71,35.151046 4.79,-4.47784 4.904027,4.142002"
       id="path1063"
       sodipodi:nodetypes="ccc" /><path
       style="fill:#000000;fill-opacity:1;stroke:#000000;stroke-width:1.5;stroke-linecap:round;stroke-linejoin:round;stroke-dasharray:none;stroke-opacity:1"
       d="M 15.975653,27.5 31.524345,10.550407 29.016491,27.5 Z"
       id="path474"
       sodipodi:nodetypes="cccc" /><path
       style="fill:#000000;fill-opacity:1;stroke:#000000;stroke-width:1.5;stroke-linecap:round;stroke-linejoin:round;stroke-dasharray:none;stroke-opacity:1"
       d="M 31.524345,10.550407 24.75314,17.727935 13.96937,11.447598 20.99136,4.2700691 Z"
       id="path1084"
       sodipodi:nodetypes="ccccc" /><path
       style="fill:#000000;fill-opacity:1;stroke:#000000;stroke-width:1.5;stroke-linecap:round;stroke-linejoin:round;stroke-dasharray:none;stroke-opacity:1"
       d="m 13.96937,11.447598 -2.507853,3.588764 3.009424,2.691573 3.510995,-4.037359 z"
       id="path1086"
       sodipodi:nodetypes="ccccc" /><path
       style="fill:#ffffff;fill-opacity:1;stroke:#ffffff;stroke-width:1.50467;stroke-linecap:round;stroke-linejoin:round;stroke-dasharray:none;stroke-opacity:1"
       id="path1145"
       sodipodi:type="arc"
       sodipodi:cx="20.222204"
       sodipodi:cy="-5.5910211"
       sodipodi:rx="0.37286377"
       sodipodi:ry="0.85226005"
       sodipodi:start="0"
       sodipodi:end="6.2753409"
       sodipodi:open="true"
       sodipodi:arc-type="chord"
       d="m 20.595068,-5.5910211 a 0.37286377,0.85226005 0 0 1 -0.372133,0.8522585 0.37286377,0.85226005 0 0 1 -0.373592,-0.8489157 0.37286377,0.85226005 0 0 1 0.370668,-0.8555881 0.37286377,0.85226005 0 0 1 0.375046,0.8455599 z"
       transform="matrix(0.74537293,0.66664773,-0.74537293,0.66664773,0,0)" /><path
       style="fill:#ffffff;fill-opacity:1;stroke:#000000;stroke-width:1.5;stroke-linecap:round;stroke-linejoin:round;stroke-dasharray:none;stroke-opacity:1"
       d="m 15,27.5 h 15 l 1,-3 -6,3 -2.5,-3 -2.5,3 -6,-3 z"
       id="path1226"
       sodipodi:nodetypes="cccccccc" /><path
       style="fill:#000000;stroke:#000000;stroke-width:1.5;stroke-linecap:round;stroke-linejoin:round;fill-opacity:1"
       d="m 23.760261,5.6126602 3.274051,-3.7417735 v 1.7773422 l 2.525697,1.4967096 -2.15152,2.5256968 z"
       id="path351" /><path
       style="fill:#000000;stroke:#000000;stroke-width:1.5;stroke-linecap:round;stroke-linejoin:round;fill-opacity:1"
       d="m 28.624567,8.5125345 3.648228,-3.1805076 v 1.9644312 l 1.777344,1.3096206 -2.432153,2.1515193 z"
       id="path353" /><path
       style="fill:#000000;stroke:#000000;stroke-width:1.5;stroke-linecap:round;stroke-linejoin:round;fill-opacity:1"
       d="m 31.243807,12.628485 4.583673,-1.870887 -1.403165,2.338609 -0.09354,2.993419 h -3.367598 z"
       id="path355" /><path
       style="fill:#000000;stroke:#000000;stroke-width:1.5;stroke-linecap:round;stroke-linejoin:round;fill-opacity:1"
       d="m 30.682541,18.334689 4.30304,-0.467721 -1.496711,1.964431 -0.467719,2.338608 -2.899876,-0.280633 z"
       id="path357" /><path
       style="fill:#000000;fill-opacity:1;stroke:#000000;stroke-width:1.2;stroke-linecap:round;stroke-linejoin:round;stroke-dasharray:none"
       d="m 43.57675,19.996116 c 0,0 -1.910545,-3.970351 -2.910596,-4.656953 -1.000051,-0.686603 -3.537494,-0.985126 -3.537494,-0.985126 0,0 -1.42547,1.951187 -0.537341,2.776262 0.329699,0.306291 1.359603,-0.141493 2.127968,-0.128509 0.384183,0.0065 -0.259755,1.359582 0.254057,1.815481 0.513812,0.455899 1.827146,-0.164509 1.827146,-0.164509 0,0 -0.271998,1.452275 0.447784,1.612022 0.845151,0.187572 2.328476,-0.26867 2.328476,-0.26867 z"
       id="path1014-8"
       sodipodi:nodetypes="cscscscscc" /><path
       style="fill:#000000;stroke:#ffffff;stroke-width:1;stroke-linecap:round;stroke-linejoin:round"
       d="m 13.900124,11.615367 3.741773,2.15152"
       id="path297" /><path
       style="fill:none;stroke:#ffffff;stroke-width:1;stroke-linecap:round;stroke-linejoin:round"
       d="m 22.786836,6.0027071 7.951269,4.9578499 -2.057977,13.37684"
       id="path299" /><path
       style="fill:none;stroke:#ffffff;stroke-width:1;stroke-linecap:round;stroke-linejoin:round"
       d="M 18.483796,25.553473 30.270382,12.457266"
       id="path858" /><path
       style="fill:#000000;fill-opacity:1;stroke:#ffffff;stroke-width:1;stroke-linecap:round;stroke-linejoin:round;stroke-opacity:1"
       d="M 13.432402,35.469173 H 31.673547"
       id="path914" /></g></svg>
