<?xml version="1.0" encoding="UTF-8" standalone="no"?>
<!-- Created with Inkscape (http://www.inkscape.org/) -->

<svg
   width="45mm"
   height="45mm"
   viewBox="0 0 45 45"
   version="1.1"
   id="svg5"
   inkscape:version="1.2.2 (732a01da63, 2022-12-09)"
   sodipodi:docname="wK.svg"
   xmlns:inkscape="http://www.inkscape.org/namespaces/inkscape"
   xmlns:sodipodi="http://sodipodi.sourceforge.net/DTD/sodipodi-0.dtd"
   xmlns="http://www.w3.org/2000/svg"
   xmlns:svg="http://www.w3.org/2000/svg">
  <sodipodi:namedview
     id="namedview7"
     pagecolor="#ffffff"
     bordercolor="#000000"
     borderopacity="0.25"
     inkscape:showpageshadow="2"
     inkscape:pageopacity="0.0"
     inkscape:pagecheckerboard="0"
     inkscape:deskcolor="#d1d1d1"
     inkscape:document-units="mm"
     showgrid="false"
     inkscape:zoom="2.3634905"
     inkscape:cx="30.040315"
     inkscape:cy="84.197504"
     inkscape:window-width="1280"
     inkscape:window-height="649"
     inkscape:window-x="-8"
     inkscape:window-y="-8"
     inkscape:window-maximized="1"
     inkscape:current-layer="layer1" />
  <defs
     id="defs2" />
  <g
     inkscape:label="Layer 1"
     inkscape:groupmode="layer"
     id="layer1">
    <rect
       style="fill:#ffffff;fill-opacity:1;stroke:#000000;stroke-width:1.51681;stroke-linecap:round;stroke-linejoin:round;stroke-dasharray:none"
       id="rect1159"
       width="15.483188"
       height="8.7149763"
       x="14.758406"
       y="28.330406" />
    <path
       style="fill:#ffffff;fill-opacity:1;stroke:#000000;stroke-width:1.5;stroke-linecap:round;stroke-linejoin:round;stroke-dasharray:none"
       d="m 20.5,10.999861 -1.5,8 h 7 l -1.5,-8 z"
       id="path1012"
       sodipodi:nodetypes="ccccc" />
    <path
       style="fill:#ffffff;fill-opacity:1;stroke:#000000;stroke-width:1.5;stroke-linecap:round;stroke-linejoin:round;stroke-dasharray:none"
       d="M 17,16.499861 13.545467,30.5 H 31.680721 L 28,16.499861 Z"
       id="path1010"
       sodipodi:nodetypes="ccccc" />
    <path
       style="fill:#ffffff;fill-opacity:1;stroke:#000000;stroke-width:1.5;stroke-linecap:round;stroke-linejoin:round;stroke-dasharray:none"
       d="M 12.5,30.499861 7.7242746,20.299659 20.5,26.999861 l 2,-4.797119 2,4.797119 L 36.606345,19.739929 32.5,30.499861 Z"
       id="path1008"
       sodipodi:nodetypes="cccccccc" />
    <path
       style="fill:#ffffff;fill-opacity:1;stroke:#000000;stroke-width:1.5;stroke-linejoin:round;stroke-dasharray:none;stroke-opacity:1"
       d="m 35,35.49994 2.5,4.5 h -30 l 2.5,-4.5 z"
       id="path2055"
       sodipodi:nodetypes="ccccc" />
    <path
       style="fill:#ffffff;fill-opacity:1;stroke:#000000;stroke-width:1.5;stroke-linecap:round;stroke-linejoin:round;stroke-dasharray:none"
       d="m 8.5078967,17.277117 c 0,0 2.3881823,-4.962939 3.6382463,-5.821192 1.250064,-0.858253 4.421867,-1.231407 4.421867,-1.231407 0,0 1.781837,2.438984 0.671676,3.470327 -0.412124,0.382864 -1.699503,-0.176866 -2.659959,-0.160636 -0.480228,0.0081 0.324694,1.699477 -0.317571,2.269351 -0.642265,0.569874 -2.283933,-0.205636 -2.283933,-0.205636 0,0 0.339998,1.815344 -0.55973,2.015028 -1.056439,0.234464 -2.9105963,-0.335838 -2.9105963,-0.335838 z"
       id="path1014"
       sodipodi:nodetypes="cscscscscc" />
    <path
       style="fill:#ffffff;fill-opacity:1;stroke:#000000;stroke-width:1.5;stroke-linecap:round;stroke-linejoin:round;stroke-dasharray:none"
       d="m 36.116711,17.021594 c 0,0 -2.388182,-4.962939 -3.638245,-5.821192 -1.250064,-0.858253 -4.421868,-1.2314066 -4.421868,-1.2314066 0,0 -1.781837,2.4389836 -0.671676,3.4703266 0.412124,0.382864 1.699503,-0.176866 2.65996,-0.160636 0.480228,0.0081 -0.324694,1.699477 0.317571,2.269351 0.642265,0.569874 2.283933,-0.205636 2.283933,-0.205636 0,0 -0.339998,1.815344 0.55973,2.015028 1.056438,0.234464 2.910595,-0.335838 2.910595,-0.335838 z"
       id="path1014-8"
       sodipodi:nodetypes="cscscscscc" />
    <path
       style="fill:none;fill-opacity:1;stroke:#000000;stroke-width:1;stroke-linecap:round;stroke-linejoin:round;stroke-dasharray:none"
       d="M 17.127739,24.889446 22.5,18.499861 l 5.262612,6.277638"
       id="path1105"
       sodipodi:nodetypes="ccc" />
  </g>
</svg>
