<?xml version="1.0" encoding="UTF-8" standalone="no"?>
<!-- Uploaded to: SVG Repo, www.svgrepo.com, Generator: SVG Repo Mixer Tools -->

<svg
   fill="#000000"
   height="45"
   width="45"
   version="1.1"
   id="Layer_1"
   viewBox="0 0 503.32192 503.32192"
   xml:space="preserve"
   sodipodi:docname="wall.svg"
   inkscape:version="1.2.2 (732a01da63, 2022-12-09)"
   xmlns:inkscape="http://www.inkscape.org/namespaces/inkscape"
   xmlns:sodipodi="http://sodipodi.sourceforge.net/DTD/sodipodi-0.dtd"
   xmlns="http://www.w3.org/2000/svg"
   xmlns:svg="http://www.w3.org/2000/svg"><defs
   id="defs152" /><sodipodi:namedview
   id="namedview150"
   pagecolor="#ffffff"
   bordercolor="#000000"
   borderopacity="0.25"
   inkscape:showpageshadow="2"
   inkscape:pageopacity="0.0"
   inkscape:pagecheckerboard="0"
   inkscape:deskcolor="#d1d1d1"
   showgrid="false"
   inkscape:zoom="4.46"
   inkscape:cx="15.695067"
   inkscape:cy="24.215247"
   inkscape:window-width="1280"
   inkscape:window-height="649"
   inkscape:window-x="-8"
   inkscape:window-y="-8"
   inkscape:window-maximized="1"
   inkscape:current-layer="g145" />
<g
   transform="translate(1,1)"
   id="g147">
	<g
   id="g145">
		<rect
   style="fill:#bf3232;fill-opacity:1;stroke:#000000;stroke-width:16.1554;stroke-linecap:round;stroke-linejoin:round;stroke-dasharray:none;stroke-opacity:1;opacity:0.75"
   id="rect918"
   width="487.16653"
   height="487.16653"
   x="8.0776834"
   y="8.0776834"
   ry="29.268629"
   transform="translate(-1,-1)" /><path
   d="M 493.644,-1 H 372.153 250.661 129.169 7.678 C 2.471,-1 -1,2.471 -1,7.678 v 69.424 69.424 69.424 69.424 69.424 69.424 69.424 c 0,5.207 3.471,8.678 8.678,8.678 H 129.17 250.662 372.154 493.646 c 5.207,0 8.678,-3.471 8.678,-8.678 V 424.22 354.796 285.372 215.948 146.524 77.102 7.678 C 502.322,2.471 498.851,-1 493.644,-1 Z M 372.153,415.542 h -52.068 v -52.068 h 52.068 52.068 v 52.068 z m -121.492,0 h -52.068 v -52.068 h 52.068 52.068 v 52.068 z m -121.492,0 H 77.102 v -52.068 h 52.068 52.068 v 52.068 z m -112.813,0 v -52.068 h 43.39 v 52.068 z M 129.169,85.78 h 52.068 v 52.068 H 129.169 77.102 V 85.78 Z m 121.492,0 h 52.068 v 52.068 H 250.661 198.593 V 85.78 Z m 121.492,0 h 52.068 v 52.068 H 372.153 320.085 V 85.78 Z m 112.813,0 v 52.068 h -43.39 V 85.78 Z m 0,121.491 H 432.898 380.83 v -52.068 h 52.068 52.068 z m 0,69.424 h -43.39 v -52.068 h 43.39 z m 0,69.424 H 432.898 380.83 v -52.068 h 52.068 52.068 z m -173.559,0 h -52.068 v -52.068 h 52.068 52.068 v 52.068 z m -121.492,0 h -52.068 v -52.068 h 52.068 52.068 v 52.068 z m -121.491,0 H 16.356 v -52.068 h 52.068 52.068 v 52.068 z M 16.356,224.627 h 43.39 v 52.068 h -43.39 z m 0,-69.424 h 52.068 52.068 v 52.068 H 68.424 16.356 Z m 173.559,0 h 52.068 v 52.068 h -52.068 -52.068 v -52.068 z m 121.492,0 h 52.068 v 52.068 H 311.407 259.339 V 155.203 Z M 424.22,276.695 h -52.068 -52.068 v -52.068 h 52.068 52.068 z m -173.559,0 h -52.068 v -52.068 h 52.068 52.068 v 52.068 z m -121.492,0 H 77.102 v -52.068 h 52.068 52.068 v 52.068 z M 59.746,137.847 H 16.356 V 85.78 h 43.39 z m 381.83,225.628 h 43.39 v 52.068 h -43.39 z M 484.966,68.424 H 432.898 380.83 V 16.356 h 104.136 z m -121.491,0 H 311.407 259.339 V 16.356 h 104.136 z m -121.492,0 H 189.915 137.847 V 16.356 H 241.983 Z M 16.356,16.356 H 120.492 V 68.424 H 68.424 16.356 Z m 0,416.542 h 52.068 52.068 v 52.068 H 16.356 Z m 121.491,0 h 52.068 52.068 v 52.068 H 137.847 Z m 121.492,0 h 52.068 52.068 v 52.068 H 259.339 Z m 225.627,52.068 H 380.831 v -52.068 h 52.068 52.068 v 52.068 z"
   id="path143"
   style="fill:#020000;fill-opacity:1;stroke:#000000;stroke-width:1.0011;stroke-dasharray:none;stroke-opacity:1" />
	</g>
</g>
</svg>
